<svg xmlns="http://www.w3.org/2000/svg" viewBox="0 0 383.00879 34.0158"><defs><style>.cls-1{fill:#ed1c24;}.cls-1,.cls-2{fill-rule:evenodd;}.cls-2{fill:#ffffff;}</style></defs><title>Asset 1</title><g id="Layer_2" data-name="Layer 2"><g id="Layer_1-2" data-name="Layer 1"><polygon class="cls-1" points="92.203 30.784 95.823 30.784 95.823 34.015 91.025 34.015 91.025 30.784 92.001 30.784 92.068 30.784 92.136 30.784 92.203 30.784"/><polygon class="cls-1" points="249.753 30.784 253.64 30.784 253.64 34.015 248.488 34.015 248.488 30.784 249.536 30.784 249.608 30.784 249.68 30.784 249.753 30.784"/><polygon class="cls-2" points="267.734 30.784 294.968 30.784 294.968 34.015 258.869 34.015 258.869 30.784 266.21 30.784 266.719 30.784 267.224 30.784 267.734 30.784"/><polygon class="cls-2" points="135.68 30.784 243.259 30.784 243.259 34.015 100.66 34.015 100.66 30.784 129.659 30.784 131.671 30.784 133.667 30.784 135.68 30.784"/><path class="cls-2" d="M85.0391,0H0V34.0158H85.0391V0ZM6.2657,27.5678V6.4477H31.2486a25.09552,25.09552,0,0,1,4.8415.39A8.60953,8.60953,0,0,1,39.189,8.0076a4.32681,4.32681,0,0,1,1.6461,1.9499,7.10318,7.10318,0,0,1,.4841,2.7301v8.85a6.59745,6.59745,0,0,1-.4841,2.6252,4.20124,4.20124,0,0,1-1.6461,1.8748,9.00551,9.00551,0,0,1-3.0989,1.1401,25.11058,25.11058,0,0,1-4.8415.3901ZM36.1675,12.6876v8.8203a3.75339,3.75339,0,0,1-.2321,1.4099,1.82434,1.82434,0,0,1-.7943.9,4.3413,4.3413,0,0,1-1.5103.4799,15.6714,15.6714,0,0,1-2.3822.15H11.4171V9.5678H31.2486a15.686,15.686,0,0,1,2.3822.1499,3.94144,3.94144,0,0,1,1.5103.51,1.958,1.958,0,0,1,.7943.9601,4.18944,4.18944,0,0,1,.2321,1.4998Zm10.342,14.8802V24.4477H70.2142q3.4083,0,3.4086-1.95V19.8278q0-1.95-3.4086-1.95H54.1786a17.85894,17.85894,0,0,1-3.9507-.375,8.16389,8.16389,0,0,1-2.6535-1.0499,4.16374,4.16374,0,0,1-1.4907-1.6053,4.56145,4.56145,0,0,1-.4649-2.0699V11.5478a4.563,4.563,0,0,1,.4649-2.0702,4.16211,4.16211,0,0,1,1.4907-1.6049,8.155,8.155,0,0,1,2.6535-1.05,17.85894,17.85894,0,0,1,3.9507-.375H77.2637V9.5678H54.1786q-3.40845,0-3.4087,1.9499v1.2901q0,1.95,3.4087,1.9499H70.2142a17.85263,17.85263,0,0,1,3.9506.3751,8.15628,8.15628,0,0,1,2.6535,1.0499,4.16936,4.16936,0,0,1,1.4911,1.605,4.56634,4.56634,0,0,1,.4646,2.0701v2.6099a4.566,4.566,0,0,1-.4646,2.0701,4.168,4.168,0,0,1-1.4911,1.605,8.163,8.163,0,0,1-2.6535,1.05,17.85924,17.85924,0,0,1-3.9506.375Z"/><path class="cls-2" d="M127.95079,27.5678V12.7777L114.084,27.5678h-4.2219L95.957,12.8078h0l-4.7642-5.057V6.4477h4.803l16.1904,17.2499,16.113-17.2499h4.4155V27.5678Zm41.3668,0-14.0604-17.0102-14.2925,17.0102h-5.7323l18.127-21.1201h3.7571l18.011,21.1201Zm15.0282,0a17.86112,17.86112,0,0,1-3.9506-.375,8.15708,8.15708,0,0,1-2.653-1.05,4.1687,4.1687,0,0,1-1.4916-1.605,4.566,4.566,0,0,1-.4646-2.0701V11.5478a4.56676,4.56676,0,0,1,.4646-2.0702,4.16708,4.16708,0,0,1,1.4916-1.6049,8.14818,8.14818,0,0,1,2.653-1.05,17.86112,17.86112,0,0,1,3.9506-.375h21.9617V9.5678h-21.9617q-3.40845,0-3.4084,1.9499v10.98q0,1.95,3.4084,1.95h21.9617v3.1201Zm53.7619,0V17.9677H215.797v9.6001h-5.1514V6.4477h5.1514v8.3999h22.3107V6.4477h5.1511V27.5678Zm10.3802,0V6.4477h5.1517V27.5678Zm43.9625,0-29.0886-16.4401V27.5678h-4.4932V6.4477h4.4544l27.1522,15.69V6.4477h4.4926V27.5678Zm7.7465,0V6.4477h5.1517V27.5678Zm43.9625,0-29.0885-16.4401V27.5678h-4.4932V6.4477h4.4543l27.1523,15.69V6.4477h4.4926V27.5678Zm17.0813,0q-9.72165,0-9.722-4.5601V11.0078q0-4.5603,9.722-4.5601h21.3424V9.5678h-21.3424q-4.57,0-4.5703,1.44V23.0077q0,1.44015,4.5703,1.44h12.0464q4.57005,0,4.5703-1.3799v-7.02h5.1514v7.02q0,4.49985-9.7217,4.5Z"/><polygon class="cls-2" points="301.697 30.784 305.584 30.784 305.584 34.015 300.432 34.015 300.432 30.784 301.48 30.784 301.552 30.784 301.625 30.784 301.697 30.784"/><polygon class="cls-2" points="328.365 30.784 383.009 30.784 383.009 34.015 310.578 34.015 310.578 30.784 325.307 30.784 326.329 30.784 327.343 30.784 328.365 30.784"/><polygon class="cls-1" points="301.462 30.784 305.349 30.784 305.349 34.015 300.197 34.015 300.197 30.784 301.245 30.784 301.317 30.784 301.389 30.784 301.462 30.784"/></g></g></svg>