<svg xmlns="http://www.w3.org/2000/svg" viewBox="0 0 433.70079 34.0157"><defs><style>.cls-1{fill:#ed1c24;}.cls-1,.cls-2{fill-rule:evenodd;}.cls-2{fill:#ffffff;}</style></defs><title>Asset 2</title><g id="Layer_2" data-name="Layer 2"><g id="Layer_1-2" data-name="Layer 1"><polygon class="cls-1" points="166.665 30.784 170.285 30.784 170.285 34.016 165.487 34.016 165.487 30.784 166.463 30.784 166.531 30.784 166.598 30.784 166.665 30.784"/><polygon class="cls-1" points="324.483 30.784 328.366 30.784 328.366 34.016 323.219 34.016 323.219 30.784 324.266 30.784 324.338 30.784 324.41 30.784 324.483 30.784"/><polygon class="cls-2" points="356.949 30.784 433.701 30.784 433.701 34.016 331.964 34.016 331.964 30.784 352.653 30.784 354.089 30.784 355.513 30.784 356.949 30.784"/><polygon class="cls-2" points="210.409 30.784 318.807 30.784 318.807 34.016 175.123 34.016 175.123 30.784 204.342 30.784 206.37 30.784 208.381 30.784 210.409 30.784"/><polygon class="cls-2" points="108.061 30.784 160.65 30.784 160.65 34.016 90.942 34.016 90.942 30.784 105.118 30.784 106.101 30.784 107.077 30.784 108.061 30.784"/><path class="cls-2" d="M99.4689,27.568a17.83126,17.83126,0,0,1-3.9473-.375,8.15106,8.15106,0,0,1-2.6507-1.0499,4.16808,4.16808,0,0,1-1.4899-1.605,4.57111,4.57111,0,0,1-.4643-2.0702V11.548a4.57009,4.57009,0,0,1,.4643-2.0701,4.16808,4.16808,0,0,1,1.4899-1.605A8.15106,8.15106,0,0,1,95.5216,6.823a17.83068,17.83068,0,0,1,3.9473-.3751h21.94149V9.568H99.4689q-3.40545,0-3.4056,1.95v10.98q0,1.95,3.4056,1.9499h21.94149V27.568Zm34.63419,0a17.82741,17.82741,0,0,1-3.9469-.375,8.15017,8.15017,0,0,1-2.651-1.0499,4.16808,4.16808,0,0,1-1.4899-1.605,4.57111,4.57111,0,0,1-.4643-2.0702V11.548a4.57009,4.57009,0,0,1,.4643-2.0701,4.16808,4.16808,0,0,1,1.4899-1.605,8.15017,8.15017,0,0,1,2.651-1.0499,17.82683,17.82683,0,0,1,3.9469-.3751h17.9946a17.83194,17.83194,0,0,1,3.9473.3751,8.152,8.152,0,0,1,2.6507,1.0499,4.16931,4.16931,0,0,1,1.4898,1.605,4.56884,4.56884,0,0,1,.4644,2.0701V22.4679a4.56986,4.56986,0,0,1-.4644,2.0702,4.16931,4.16931,0,0,1-1.4898,1.605,8.152,8.152,0,0,1-2.6507,1.0499,17.83251,17.83251,0,0,1-3.9473.375Zm21.3999-16.05q0-1.95-3.4053-1.95h-17.9946q-3.4053,0-3.4052,1.95v10.98q0,1.95,3.4052,1.9499h17.9946q3.40545,0,3.4053-1.9499V11.518Zm9.9839-3.767V6.4479h4.7985l16.1756,17.25,16.0982-17.25h4.4116V27.568h-4.7596V12.778l-13.8538,14.79h-4.2182l-13.8924-14.76-4.7599-5.057Zm51.6614,12.0169V27.568h-5.1466V16.6464h4.0162l1.1304.0009,17.1819.0005q3.40545,0,3.4053-1.9499V11.518q0-1.95-3.4053-1.95l-16.429-.0002-4.5184-.0003h-1.3811V6.4479h22.3285a17.82591,17.82591,0,0,1,3.947.3751,8.15109,8.15109,0,0,1,2.651,1.0499,4.167,4.167,0,0,1,1.4898,1.605,4.56884,4.56884,0,0,1,.4644,2.0701v3.1198a4.56806,4.56806,0,0,1-.4644,2.0702,4.16493,4.16493,0,0,1-1.4898,1.605,8.14441,8.14441,0,0,1-2.651,1.0499,17.82649,17.82649,0,0,1-3.947.375ZM254.84,27.568a17.8303,17.8303,0,0,1-3.9472-.375,8.15106,8.15106,0,0,1-2.6507-1.0499,4.16808,4.16808,0,0,1-1.4899-1.605,4.57111,4.57111,0,0,1-.4643-2.0702V11.548a4.57009,4.57009,0,0,1,.4643-2.0701,4.16808,4.16808,0,0,1,1.4899-1.605,8.15106,8.15106,0,0,1,2.6507-1.0499,17.82972,17.82972,0,0,1,3.9472-.3751h17.9944a17.82972,17.82972,0,0,1,3.9472.3751,8.1483,8.1483,0,0,1,2.6507,1.0499,4.16808,4.16808,0,0,1,1.4899,1.605,4.57009,4.57009,0,0,1,.4643,2.0701V22.4679a4.57111,4.57111,0,0,1-.4643,2.0702,4.16808,4.16808,0,0,1-1.4899,1.605,8.1483,8.1483,0,0,1-2.6507,1.0499,17.8303,17.8303,0,0,1-3.9472.375Zm21.3999-16.05q0-1.95-3.4055-1.95H254.84q-3.4053,0-3.4055,1.95v10.98q0,1.95,3.4055,1.9499h17.9944q3.4053,0,3.4055-1.9499V11.518Zm10.332,16.05V24.4479h23.6832q3.40545,0,3.4052-1.9499v-2.67q0-1.94985-3.4052-1.9499h-16.0209a17.8303,17.8303,0,0,1-3.9472-.375,8.151,8.151,0,0,1-2.6507-1.05,4.16531,4.16531,0,0,1-1.4899-1.6053,4.56852,4.56852,0,0,1-.4643-2.0698v-1.23a4.57009,4.57009,0,0,1,.4643-2.0701,4.16808,4.16808,0,0,1,1.4899-1.605A8.15106,8.15106,0,0,1,290.287,6.823a17.82972,17.82972,0,0,1,3.9472-.3751H317.298V9.568h-23.0638q-3.4053,0-3.4052,1.95v1.29q0,1.95,3.4052,1.95h16.0209a17.83218,17.83218,0,0,1,3.9472.375,8.14881,8.14881,0,0,1,2.6507,1.05,4.16638,4.16638,0,0,1,1.4899,1.6049,4.57051,4.57051,0,0,1,.4643,2.0702v2.6098a4.57111,4.57111,0,0,1-.4643,2.0702,4.16731,4.16731,0,0,1-1.4899,1.605,8.15106,8.15106,0,0,1-2.6507,1.0499,17.83218,17.83218,0,0,1-3.9472.375Zm36.6469,0V6.4479h5.1468V27.568Zm23.0252,0v-18h-14.2795V6.4479h33.3187V9.568h-13.8923v18Zm22.4833,0V6.4479h28.0171V9.568h-22.8702v5.2798h21.7094v3.1201h-21.7094v6.48h22.8702V27.568Zm32.7385,0V24.4479h23.6829q3.4053,0,3.4052-1.9499v-2.67q0-1.94985-3.4052-1.9499h-16.0209a17.8303,17.8303,0,0,1-3.9472-.375,8.14828,8.14828,0,0,1-2.6507-1.05,4.16455,4.16455,0,0,1-1.4899-1.6053,4.56852,4.56852,0,0,1-.4643-2.0698v-1.23a4.57009,4.57009,0,0,1,.4643-2.0701,4.16731,4.16731,0,0,1,1.4899-1.605,8.1483,8.1483,0,0,1,2.6507-1.0499,17.82972,17.82972,0,0,1,3.9472-.3751h23.0638V9.568h-23.0638q-3.40545,0-3.4055,1.95v1.29q0,1.95,3.4055,1.95h16.0209a17.8303,17.8303,0,0,1,3.9472.375,8.14881,8.14881,0,0,1,2.6507,1.05,4.16715,4.16715,0,0,1,1.4899,1.6049,4.57051,4.57051,0,0,1,.4643,2.0702v2.6098a4.57111,4.57111,0,0,1-.4643,2.0702,4.16808,4.16808,0,0,1-1.4899,1.605,8.15106,8.15106,0,0,1-2.6507,1.0499,17.8303,17.8303,0,0,1-3.9472.375Z"/><path class="cls-2" d="M0,0H84.962V34.0157H0V0ZM6.26,27.568H31.2199a25.07937,25.07937,0,0,0,4.8374-.39,8.99145,8.99145,0,0,0,3.0957-1.1401,4.2027,4.2027,0,0,0,1.6446-1.8748,6.60135,6.60135,0,0,0,.4839-2.6252V12.6878a7.10494,7.10494,0,0,0-.4839-2.7297A4.32578,4.32578,0,0,0,39.153,8.0078,8.59437,8.59437,0,0,0,36.0573,6.838a25.07843,25.07843,0,0,0-4.8374-.3901H6.26V27.568ZM36.1346,12.6878a4.18723,4.18723,0,0,0-.2321-1.4998,1.9598,1.9598,0,0,0-.7934-.9601,3.93557,3.93557,0,0,0-1.5092-.5099,15.64089,15.64089,0,0,0-2.38-.15H11.4066V24.4479H31.2199a15.64251,15.64251,0,0,0,2.38-.1499,4.33669,4.33669,0,0,0,1.5092-.4799,1.82621,1.82621,0,0,0,.7934-.9,3.75217,3.75217,0,0,0,.2321-1.4103v-8.82ZM46.4669,27.568H70.1498a17.83126,17.83126,0,0,0,3.9473-.375,8.15044,8.15044,0,0,0,2.6506-1.0499,4.16655,4.16655,0,0,0,1.4899-1.605,4.56986,4.56986,0,0,0,.4644-2.0702V19.8581a4.56926,4.56926,0,0,0-.4644-2.0702,4.16562,4.16562,0,0,0-1.4899-1.6049,8.14819,8.14819,0,0,0-2.6506-1.05,17.83126,17.83126,0,0,0-3.9473-.375H54.129q-3.40545,0-3.4053-1.95v-1.29q0-1.95,3.4053-1.95H77.1928V6.4479H54.129a17.83068,17.83068,0,0,0-3.9473.3751,8.15044,8.15044,0,0,0-2.6506,1.0499,4.16655,4.16655,0,0,0-1.4899,1.605,4.56879,4.56879,0,0,0-.4643,2.0701v1.23a4.56721,4.56721,0,0,0,.4643,2.0698,4.16379,4.16379,0,0,0,1.4899,1.6053,8.15042,8.15042,0,0,0,2.6506,1.05,17.83126,17.83126,0,0,0,3.9473.375H70.1498q3.40545,0,3.4056,1.9499v2.67q0,1.95-3.4056,1.9499H46.4669Z"/></g></g></svg>
