<svg width="640" height="640" viewBox="0 0 640 640" fill="none" xmlns="http://www.w3.org/2000/svg">
  <rect x="76" y="92" width="270" height="456" rx="16" fill="#222330" fill-opacity="0.4"/>
  <rect x="76" y="92" width="270" height="456" rx="16" stroke="#222330" stroke-width="12"/>
  <path d="M217.68 324.84H209.52V300.2L199.76 304.44C199.067 304.12 198.453 303.64 197.92 303C197.387 302.36 197.12 301.533 197.12 300.52C197.12 298.6 198.32 297.187 200.72 296.28L211.36 291.8H213.2C214.587 291.8 215.68 292.2 216.48 293C217.28 293.8 217.68 294.893 217.68 296.28V324.84ZM209.52 319.88H217.68V341.08C217.307 341.187 216.773 341.293 216.08 341.4C215.44 341.56 214.72 341.64 213.92 341.64C212.427 341.64 211.307 341.347 210.56 340.76C209.867 340.173 209.52 339.213 209.52 337.88V319.88Z" fill="#222330"/>
  <rect x="393" y="98" width="164" height="197" rx="10" fill="#222330" fill-opacity="0.4"/>
  <rect x="393" y="98" width="164" height="197" rx="10" stroke="#222330" stroke-width="12"/>
  <path d="M461.06 177.77C461.06 176.743 461.573 175.81 462.6 174.97C463.673 174.083 465.12 173.383 466.94 172.87C468.807 172.31 470.86 172.03 473.1 172.03C476.273 172.03 478.957 172.567 481.15 173.64C483.39 174.667 485.093 176.113 486.26 177.98C487.473 179.8 488.08 181.947 488.08 184.42C488.08 186.987 487.38 189.483 485.98 191.91C484.58 194.337 482.223 197.02 478.91 199.96L467.99 209.76H487.87C488.057 210.04 488.243 210.437 488.43 210.95C488.617 211.417 488.71 211.953 488.71 212.56C488.71 213.54 488.453 214.287 487.94 214.8C487.473 215.267 486.843 215.5 486.05 215.5H461.48C460.873 215.08 460.407 214.567 460.08 213.96C459.753 213.307 459.59 212.583 459.59 211.79C459.59 210.857 459.777 210.04 460.15 209.34C460.523 208.64 461.013 208.01 461.62 207.45L473.52 196.25C476.32 193.683 478.233 191.56 479.26 189.88C480.287 188.153 480.8 186.403 480.8 184.63C480.8 182.67 480.1 181.06 478.7 179.8C477.347 178.54 475.27 177.91 472.47 177.91C470.463 177.91 468.667 178.26 467.08 178.96C465.54 179.613 464.233 180.313 463.16 181.06C462.6 180.78 462.11 180.36 461.69 179.8C461.27 179.24 461.06 178.563 461.06 177.77Z" fill="#222330"/>
  <rect x="393" y="345" width="164" height="197" rx="10" fill="#222330" fill-opacity="0.4"/>
  <rect x="393" y="345" width="164" height="197" rx="10" stroke="#222330" stroke-width="12"/>
  <path d="M472.47 419.03C477.09 419.03 480.777 420.033 483.53 422.04C486.283 424 487.66 426.917 487.66 430.79C487.66 432.563 487.31 434.103 486.61 435.41C485.91 436.67 485.047 437.697 484.02 438.49C482.993 439.283 482.037 439.82 481.15 440.1C482.41 440.52 483.623 441.173 484.79 442.06C485.957 442.947 486.913 444.09 487.66 445.49C488.453 446.89 488.85 448.593 488.85 450.6C488.85 453.4 488.15 455.733 486.75 457.6C485.397 459.467 483.507 460.89 481.08 461.87C478.653 462.85 475.853 463.34 472.68 463.34C469.927 463.34 467.523 463.06 465.47 462.5C463.463 461.94 461.9 461.217 460.78 460.33C459.66 459.443 459.1 458.487 459.1 457.46C459.1 456.62 459.31 455.92 459.73 455.36C460.15 454.8 460.687 454.333 461.34 453.96C462.46 454.8 463.86 455.593 465.54 456.34C467.267 457.087 469.507 457.46 472.26 457.46C475.153 457.46 477.463 456.853 479.19 455.64C480.963 454.427 481.85 452.63 481.85 450.25C481.85 448.103 481.057 446.4 479.47 445.14C477.883 443.88 475.55 443.25 472.47 443.25H466.45C466.263 442.923 466.077 442.503 465.89 441.99C465.75 441.477 465.68 440.94 465.68 440.38C465.68 439.727 465.75 439.143 465.89 438.63C466.077 438.117 466.263 437.72 466.45 437.44H472.12C475.153 437.44 477.323 436.88 478.63 435.76C479.937 434.593 480.59 433.053 480.59 431.14C480.59 429.133 479.82 427.593 478.28 426.52C476.74 425.4 474.617 424.84 471.91 424.84C469.763 424.84 467.85 425.167 466.17 425.82C464.537 426.427 463.183 427.103 462.11 427.85C461.597 427.57 461.13 427.15 460.71 426.59C460.29 425.983 460.08 425.307 460.08 424.56C460.08 423.533 460.617 422.6 461.69 421.76C462.81 420.92 464.28 420.267 466.1 419.8C467.967 419.287 470.09 419.03 472.47 419.03Z" fill="#222330"/>
</svg>
