<svg width="640" height="640" viewBox="0 0 640 640" fill="none" xmlns="http://www.w3.org/2000/svg">
  <rect x="58" y="147" width="200" height="345" rx="10" fill="#222330" fill-opacity="0.4"/>
  <rect x="58" y="147" width="200" height="345" rx="10" stroke="#222330" stroke-width="12"/>
  <path d="M164.68 324.34H156.52V299.7L146.76 303.94C146.067 303.62 145.453 303.14 144.92 302.5C144.387 301.86 144.12 301.033 144.12 300.02C144.12 298.1 145.32 296.687 147.72 295.78L158.36 291.3H160.2C161.587 291.3 162.68 291.7 163.48 292.5C164.28 293.3 164.68 294.393 164.68 295.78V324.34ZM156.52 319.38H164.68V340.58C164.307 340.687 163.773 340.793 163.08 340.9C162.44 341.06 161.72 341.14 160.92 341.14C159.427 341.14 158.307 340.847 157.56 340.26C156.867 339.673 156.52 338.713 156.52 337.38V319.38Z" fill="#222330"/>
  <rect x="293" y="147" width="127" height="152" rx="10" fill="#222330" fill-opacity="0.4"/>
  <rect x="293" y="147" width="127" height="152" rx="10" stroke="#222330" stroke-width="12"/>
  <path d="M342.56 204.27C342.56 203.243 343.073 202.31 344.1 201.47C345.173 200.583 346.62 199.883 348.44 199.37C350.307 198.81 352.36 198.53 354.6 198.53C357.773 198.53 360.457 199.067 362.65 200.14C364.89 201.167 366.593 202.613 367.76 204.48C368.973 206.3 369.58 208.447 369.58 210.92C369.58 213.487 368.88 215.983 367.48 218.41C366.08 220.837 363.723 223.52 360.41 226.46L349.49 236.26H369.37C369.557 236.54 369.743 236.937 369.93 237.45C370.117 237.917 370.21 238.453 370.21 239.06C370.21 240.04 369.953 240.787 369.44 241.3C368.973 241.767 368.343 242 367.55 242H342.98C342.373 241.58 341.907 241.067 341.58 240.46C341.253 239.807 341.09 239.083 341.09 238.29C341.09 237.357 341.277 236.54 341.65 235.84C342.023 235.14 342.513 234.51 343.12 233.95L355.02 222.75C357.82 220.183 359.733 218.06 360.76 216.38C361.787 214.653 362.3 212.903 362.3 211.13C362.3 209.17 361.6 207.56 360.2 206.3C358.847 205.04 356.77 204.41 353.97 204.41C351.963 204.41 350.167 204.76 348.58 205.46C347.04 206.113 345.733 206.813 344.66 207.56C344.1 207.28 343.61 206.86 343.19 206.3C342.77 205.74 342.56 205.063 342.56 204.27Z" fill="#222330"/>
  <rect x="293" y="340" width="127" height="152" rx="10" fill="#222330" fill-opacity="0.4"/>
  <rect x="293" y="340" width="127" height="152" rx="10" stroke="#222330" stroke-width="12"/>
  <path d="M339.09 418.2L358.41 392.51C358.97 392.37 359.577 392.253 360.23 392.16C360.93 392.067 361.537 392.02 362.05 392.02C362.89 392.02 363.683 392.137 364.43 392.37C365.177 392.603 365.783 393.023 366.25 393.63C366.763 394.19 367.02 395.03 367.02 396.15V419.25H373.67C373.81 419.577 373.973 419.997 374.16 420.51C374.347 420.977 374.44 421.513 374.44 422.12C374.44 423.1 374.207 423.847 373.74 424.36C373.273 424.873 372.62 425.13 371.78 425.13H367.02V435.07C366.74 435.163 366.297 435.257 365.69 435.35C365.083 435.49 364.477 435.56 363.87 435.56C362.657 435.56 361.723 435.35 361.07 434.93C360.417 434.463 360.09 433.67 360.09 432.55V425.13H340.7C340.093 424.803 339.557 424.29 339.09 423.59C338.67 422.843 338.46 422.003 338.46 421.07C338.46 420.557 338.507 420.067 338.6 419.6C338.693 419.087 338.857 418.62 339.09 418.2ZM360.3 419.25L360.37 399.3H360.23L346.3 419.25H360.3Z" fill="#222330"/>
  <rect x="455" y="147" width="127" height="152" rx="10" fill="#222330" fill-opacity="0.4"/>
  <rect x="455" y="147" width="127" height="152" rx="10" stroke="#222330" stroke-width="12"/>
  <path d="M515.97 198.53C520.59 198.53 524.277 199.533 527.03 201.54C529.783 203.5 531.16 206.417 531.16 210.29C531.16 212.063 530.81 213.603 530.11 214.91C529.41 216.17 528.547 217.197 527.52 217.99C526.493 218.783 525.537 219.32 524.65 219.6C525.91 220.02 527.123 220.673 528.29 221.56C529.457 222.447 530.413 223.59 531.16 224.99C531.953 226.39 532.35 228.093 532.35 230.1C532.35 232.9 531.65 235.233 530.25 237.1C528.897 238.967 527.007 240.39 524.58 241.37C522.153 242.35 519.353 242.84 516.18 242.84C513.427 242.84 511.023 242.56 508.97 242C506.963 241.44 505.4 240.717 504.28 239.83C503.16 238.943 502.6 237.987 502.6 236.96C502.6 236.12 502.81 235.42 503.23 234.86C503.65 234.3 504.187 233.833 504.84 233.46C505.96 234.3 507.36 235.093 509.04 235.84C510.767 236.587 513.007 236.96 515.76 236.96C518.653 236.96 520.963 236.353 522.69 235.14C524.463 233.927 525.35 232.13 525.35 229.75C525.35 227.603 524.557 225.9 522.97 224.64C521.383 223.38 519.05 222.75 515.97 222.75H509.95C509.763 222.423 509.577 222.003 509.39 221.49C509.25 220.977 509.18 220.44 509.18 219.88C509.18 219.227 509.25 218.643 509.39 218.13C509.577 217.617 509.763 217.22 509.95 216.94H515.62C518.653 216.94 520.823 216.38 522.13 215.26C523.437 214.093 524.09 212.553 524.09 210.64C524.09 208.633 523.32 207.093 521.78 206.02C520.24 204.9 518.117 204.34 515.41 204.34C513.263 204.34 511.35 204.667 509.67 205.32C508.037 205.927 506.683 206.603 505.61 207.35C505.097 207.07 504.63 206.65 504.21 206.09C503.79 205.483 503.58 204.807 503.58 204.06C503.58 203.033 504.117 202.1 505.19 201.26C506.31 200.42 507.78 199.767 509.6 199.3C511.467 198.787 513.59 198.53 515.97 198.53Z" fill="#222330"/>
  <rect x="455" y="340" width="127" height="152" rx="10" fill="#222330" fill-opacity="0.4"/>
  <rect x="455" y="340" width="127" height="152" rx="10" stroke="#222330" stroke-width="12"/>
  <path d="M514.41 392.44L512.59 397.27L511.54 409.52C512.333 409.147 513.383 408.797 514.69 408.47C515.997 408.097 517.42 407.91 518.96 407.91C521.853 407.91 524.397 408.47 526.59 409.59C528.83 410.663 530.58 412.227 531.84 414.28C533.1 416.333 533.73 418.807 533.73 421.7C533.73 424.36 533.1 426.787 531.84 428.98C530.627 431.127 528.807 432.83 526.38 434.09C524 435.35 521.013 435.98 517.42 435.98C514.713 435.98 512.333 435.677 510.28 435.07C508.273 434.463 506.687 433.693 505.52 432.76C504.4 431.78 503.84 430.777 503.84 429.75C503.84 428.863 504.12 428.117 504.68 427.51C505.24 426.857 505.823 426.39 506.43 426.11C507.503 427.043 508.927 427.953 510.7 428.84C512.473 429.727 514.643 430.17 517.21 430.17C520.197 430.17 522.483 429.377 524.07 427.79C525.657 426.157 526.45 424.127 526.45 421.7C526.45 419.18 525.657 417.22 524.07 415.82C522.483 414.373 520.313 413.65 517.56 413.65C516.02 413.65 514.643 413.883 513.43 414.35C512.217 414.817 511.027 415.353 509.86 415.96C508.367 415.867 507.153 415.423 506.22 414.63C505.333 413.837 504.89 412.763 504.89 411.41C504.89 411.177 504.89 410.873 504.89 410.5C504.937 410.08 504.983 409.637 505.03 409.17L506.15 396.43C506.243 395.217 506.617 394.26 507.27 393.56C507.923 392.813 508.857 392.44 510.07 392.44H514.41ZM511.05 398.32V392.44H531.21C531.397 392.72 531.56 393.117 531.7 393.63C531.887 394.097 531.98 394.633 531.98 395.24C531.98 396.22 531.747 396.99 531.28 397.55C530.813 398.063 530.16 398.32 529.32 398.32H511.05Z" fill="#222330"/>
</svg>
