<svg xmlns="http://www.w3.org/2000/svg" width="90" height="90" viewBox="0 0 90 90" fill="none">
  <rect x="7" y="16" width="76" height="58" fill="#CCECED"/>
  <path d="M61.4582 28.0003C60.4667 28.0022 59.5037 28.327 58.7195 28.924C57.9354 29.5209 57.3741 30.3565 57.1234 31.3003L28.9471 39.3217C28.9215 39.0704 28.8015 38.8375 28.6107 38.6685C28.4198 38.4996 28.1718 38.4066 27.915 38.4079H22.0321C21.7584 38.4079 21.4958 38.5149 21.3023 38.7053C21.1087 38.8957 21 39.154 21 39.4233V49.2724C21 49.5417 21.1087 49.8 21.3023 49.9904C21.4958 50.1808 21.7584 50.2878 22.0321 50.2878H27.9667C28.1646 50.2846 28.3574 50.2254 28.5221 50.1174C28.6867 50.0094 28.8164 49.857 28.8955 49.6786L33.6948 50.9986V59.9846C33.6948 60.2539 33.8035 60.5122 33.9971 60.7026C34.1906 60.893 34.4532 61 34.7269 61H50.776C51.0497 61 51.3122 60.893 51.5058 60.7026C51.6994 60.5122 51.8081 60.2539 51.8081 59.9846V56.0247L57.175 57.497C57.4595 58.5372 58.1207 59.4393 59.0341 60.0334C59.9474 60.6276 61.05 60.8729 62.1344 60.7232C63.2187 60.5735 64.2101 60.039 64.9219 59.2205C65.6337 58.4019 66.0169 57.3556 65.9994 56.2785V32.4172C65.9995 31.8328 65.8816 31.2543 65.6528 30.7151C65.424 30.1759 65.0886 29.6867 64.6663 29.2759C64.2439 28.8651 63.7428 28.5408 63.1922 28.3218C62.6415 28.1029 62.0521 27.9936 61.4582 28.0003ZM28.9471 41.454L56.9686 33.4326V55.3647L28.9988 47.597L28.9471 41.454ZM26.883 48.3078H23.0642V40.4386H26.883V48.3078ZM49.7439 58.9693H35.759V51.6078L49.7439 55.4662V58.9693ZM63.9352 56.2785C63.9352 56.9113 63.6797 57.5183 63.2248 57.9658C62.77 58.4132 62.1531 58.6646 61.5098 58.6646C60.8665 58.6646 60.2496 58.4132 59.7948 57.9658C59.3399 57.5183 59.0844 56.9113 59.0844 56.2785V32.4172C59.0844 31.7843 59.3399 31.1774 59.7948 30.7299C60.2496 30.2824 60.8665 30.031 61.5098 30.031C62.1531 30.031 62.77 30.2824 63.2248 30.7299C63.6797 31.1774 63.9352 31.7843 63.9352 32.4172V56.2785Z" fill="#7FCFD2"/>
</svg>
