<svg width="640" height="640" viewBox="0 0 640 640" fill="none" xmlns="http://www.w3.org/2000/svg">
  <path class="accent-primary" opacity="0.4" d="M61.9864 309.24L116.709 213.402C117.278 212.376 117.904 211.464 118.643 210.552C123.763 205.136 130.873 202 138.496 202H243.504C251.127 202 258.294 205.193 263.414 210.609C264.096 211.464 264.722 212.376 265.291 213.402L320.014 309.24C323.995 316.253 323.995 324.861 320.014 331.874L265.177 427.712C264.722 428.51 264.21 429.251 263.698 429.992C258.579 435.693 251.24 439 243.447 439H138.439C130.646 439 123.308 435.636 118.188 429.992C117.619 429.251 117.164 428.453 116.709 427.655L61.9864 331.874C58.0045 324.861 58.0045 316.253 61.9864 309.24ZM113.41 376.115L131.158 407.187C132.807 410.038 135.765 411.805 139.065 411.805H242.822C246.064 411.805 249.079 410.038 250.728 407.187L268.818 375.488C270.524 372.524 270.41 368.875 268.533 366.024L228.259 303.596C224.05 297.096 216.882 293.163 209.146 293.163C201.41 293.163 194.242 297.096 190.033 303.596L171.375 332.501C167.109 327.769 161.022 325.089 154.537 325.089C147.085 325.089 140.145 328.738 135.879 334.839L113.865 366.366C111.817 369.274 111.646 373.037 113.41 376.115ZM127.233 265.797C127.233 280.905 139.463 293.163 154.537 293.163C169.611 293.163 181.842 280.905 181.842 265.797C181.842 250.688 169.611 238.431 154.537 238.431C139.463 238.431 127.233 250.688 127.233 265.797Z" fill="#222330"/>
  <path class="accent-primary" d="M62.2054 309.213L116.859 213.626C120.893 206.575 128.392 202.196 136.573 202.196H245.427C253.551 202.196 261.107 206.575 265.141 213.626L319.795 309.213C323.772 316.207 323.772 324.793 319.795 331.787L265.141 427.374C261.107 434.425 253.551 438.804 245.427 438.804H136.573C128.449 438.804 120.893 434.425 116.859 427.374L62.2054 331.787C58.2285 324.793 58.2285 316.207 62.2054 309.213ZM46.4114 300.171C39.1962 312.795 39.1962 328.262 46.4114 340.829L101.065 436.416C108.337 449.153 121.916 457 136.573 457H245.427C260.084 457 273.663 449.153 280.935 436.416L335.589 340.829C342.804 328.205 342.804 312.738 335.589 300.171L280.935 204.584C273.663 191.847 260.084 184 245.427 184H136.573C121.916 184 108.337 191.847 101.065 204.584L46.4114 300.171ZM209.18 311.373C210.714 311.373 212.134 312.17 212.987 313.477L250.256 371.08L237.53 393.313H144.47L132.199 371.876L150.89 345.15C151.742 343.956 153.106 343.217 154.64 343.217C156.174 343.217 157.537 343.956 158.389 345.15L164.412 353.793C166.173 356.295 169.013 357.717 172.025 357.66C175.036 357.603 177.819 356.068 179.467 353.509L205.374 313.477C206.226 312.17 207.646 311.373 209.18 311.373ZM190.091 303.583L171.456 332.413C167.195 327.693 161.116 325.021 154.64 325.021C147.197 325.021 140.266 328.66 136.005 334.744L114.019 366.19C111.973 369.09 111.803 372.843 113.564 375.913L131.29 406.904C132.937 409.747 135.892 411.51 139.187 411.51H242.813C246.052 411.51 249.063 409.747 250.71 406.904L268.777 375.288C270.481 372.331 270.367 368.692 268.493 365.848L228.269 303.583C224.065 297.101 216.907 293.177 209.18 293.177C201.454 293.177 194.295 297.101 190.091 303.583ZM163.73 265.883C163.73 270.887 159.639 274.981 154.64 274.981C149.64 274.981 145.55 270.887 145.55 265.883C145.55 260.879 149.64 256.785 154.64 256.785C159.639 256.785 163.73 260.879 163.73 265.883ZM154.64 238.589C139.584 238.589 127.37 250.814 127.37 265.883C127.37 280.952 139.584 293.177 154.64 293.177C169.695 293.177 181.91 280.952 181.91 265.883C181.91 250.814 169.695 238.589 154.64 238.589Z" fill="#222330"/>
  <path class="accent-primary" d="M383 201C378.6 201 375 205.119 375 210.154C375 215.188 378.6 219.308 383 219.308H511C515.4 219.308 519 215.188 519 210.154C519 205.119 515.4 201 511 201H383ZM383 274.231C378.6 274.231 375 278.35 375 283.385C375 288.419 378.6 292.538 383 292.538H591C595.4 292.538 599 288.419 599 283.385C599 278.35 595.4 274.231 591 274.231H383ZM375 356.615C375 361.65 378.6 365.769 383 365.769H511C515.4 365.769 519 361.65 519 356.615C519 351.581 515.4 347.462 511 347.462H383C378.6 347.462 375 351.581 375 356.615ZM383 420.692C378.6 420.692 375 424.812 375 429.846C375 434.881 378.6 439 383 439H591C595.4 439 599 434.881 599 429.846C599 424.812 595.4 420.692 591 420.692H383Z" fill="#222330"/>
</svg>
