<svg width="91" height="90" viewBox="0 0 91 90" fill="none" xmlns="http://www.w3.org/2000/svg">
<rect opacity="0.4" x="10.5" y="18" width="70" height="38" fill="#7FCFD2"/>
<path fill-rule="evenodd" clip-rule="evenodd" d="M42.1842 31.1579C42.1842 28.3093 44.4935 26 47.3421 26C50.1907 26 52.5 28.3093 52.5 31.1579V43.3158C52.5 47.1818 49.366 50.3158 45.5 50.3158C41.634 50.3158 38.5 47.1818 38.5 43.3158V31.1579C38.5 30.5475 38.9948 30.0526 39.6053 30.0526C40.2157 30.0526 40.7105 30.5475 40.7105 31.1579V43.3158C40.7105 45.9609 42.8548 48.1053 45.5 48.1053C48.1452 48.1053 50.2895 45.9609 50.2895 43.3158V31.1579C50.2895 29.5301 48.9699 28.2105 47.3421 28.2105C45.7143 28.2105 44.3947 29.5301 44.3947 31.1579V42.5789C44.3947 43.1894 44.8896 43.6842 45.5 43.6842C46.1104 43.6842 46.6053 43.1894 46.6053 42.5789V35.0962C46.6053 34.4858 47.1001 33.9909 47.7105 33.9909C48.3209 33.9909 48.8158 34.4858 48.8158 35.0962V42.5789C48.8158 44.4102 47.3313 45.8947 45.5 45.8947C43.6687 45.8947 42.1842 44.4102 42.1842 42.5789V31.1579Z" fill="#7FCFD2"/>
<rect opacity="0.4" x="10.5" y="56" width="70" height="17" fill="#7FCFD2"/>
<rect x="16.5" y="63" width="58" height="3" fill="#7FCFD2"/>
</svg>
