<svg width="133" height="137" viewBox="0 0 133 137" fill="none" xmlns="http://www.w3.org/2000/svg">
<path fill-rule="evenodd" clip-rule="evenodd" d="M128.099 96.7707C131.252 88.3317 132.828 78.8838 132.828 68.4268C132.828 57.9698 131.252 48.6135 128.099 40.358C124.946 31.919 120.495 24.7642 114.746 18.8936C108.997 12.8395 102.042 8.25313 93.8818 5.13437C85.7215 1.83216 76.7267 0.181061 66.8973 0.181061C57.0679 0.181061 48.0731 1.83216 39.9128 5.13437C31.7526 8.25313 24.7979 12.7478 19.0486 18.6184C13.2994 24.489 8.84836 31.6438 5.69553 40.0828C2.54272 48.5218 0.966309 57.9698 0.966309 68.4268C0.966309 78.8838 2.54272 88.3317 5.69553 96.7707C8.84836 105.21 13.2066 112.365 18.7704 118.235C24.5197 124.106 31.4745 128.692 39.6347 131.994C47.7949 135.113 56.8824 136.672 66.8973 136.672C76.9121 136.672 85.9998 135.113 94.16 131.994C102.32 128.692 109.182 124.106 114.746 118.235C120.495 112.365 124.946 105.21 128.099 96.7707ZM56.7177 22.3818C57.8049 21.9587 58.9293 21.6361 60.0766 21.418C62.5084 20.9262 64.9851 20.6846 67.4672 20.6969C69.9493 20.6801 72.4263 20.9207 74.8577 21.4146C76.0054 21.6328 77.1299 21.9565 78.2166 22.3818C77.1295 22.806 76.0051 23.1298 74.8577 23.3489C72.4262 23.842 69.9492 24.0825 67.4672 24.0666C64.9851 24.0784 62.5083 23.8362 60.0766 23.3438C58.9295 23.1257 57.8052 22.8037 56.7177 22.3818ZM40.7256 38.1354C39.1262 38.5162 38.2115 38.8093 38.2115 38.8093C38.2115 38.8093 39.1245 39.0941 40.7256 39.4765C42.3267 39.859 44.6108 40.3207 47.3548 40.752C54.0139 41.7197 60.7366 42.1961 67.4672 42.1774C74.1976 42.2041 80.9206 41.731 87.5795 40.7621C90.3235 40.3223 92.6093 39.8607 94.2086 39.4799C95.808 39.0991 96.7227 38.806 96.7227 38.806C96.7227 38.806 95.808 38.5178 94.2086 38.132C92.6093 37.7462 90.3235 37.2811 87.5795 36.8498C80.9207 35.8802 74.1977 35.4066 67.4672 35.4328C60.7366 35.4149 54.014 35.8914 47.3548 36.8582C44.6108 37.2929 42.325 37.7546 40.7256 38.1354ZM17.3463 58.7717L18.4722 58.4819C18.7081 58.4304 18.9794 58.3651 19.2846 58.2916L19.288 58.2908L19.2889 58.2906C19.9327 58.1355 20.7266 57.9443 21.654 57.7709C24.3946 57.1896 28.3104 56.4802 33.0097 55.8551C37.7091 55.2301 43.1902 54.6757 49.0631 54.3017C51.9996 54.1113 55.0349 53.9647 58.1195 53.8754C60.83 53.7762 63.5786 53.7525 66.3318 53.7287H66.3321C66.7104 53.7254 67.0887 53.7222 67.4671 53.7187C67.9304 53.7227 68.3937 53.7263 68.857 53.7299L68.8602 53.7299C71.5276 53.7505 74.1905 53.7711 76.8163 53.8687C79.8993 53.9411 82.9345 54.1079 85.871 54.2882C91.7439 54.6555 97.2267 55.2082 101.924 55.8417C106.622 56.4752 110.54 57.1795 113.28 57.7658C114.21 57.9417 115.011 58.1349 115.659 58.2912L115.659 58.2913C115.96 58.3641 116.229 58.4288 116.462 58.4802L117.588 58.7717L116.462 59.0615C116.267 59.1062 116.048 59.1594 115.805 59.2182L115.803 59.2189L115.802 59.219C115.132 59.3816 114.284 59.5873 113.28 59.7775C110.54 60.3622 106.624 61.0749 101.924 61.7017C97.225 62.3284 91.7439 62.8811 85.871 63.2534C82.9345 63.4354 79.8993 63.6005 76.8163 63.6747C74.232 63.7693 71.6118 63.7905 68.9868 63.8118L68.0975 63.8191L67.4671 63.8246C67.0959 63.8212 66.7248 63.818 66.3538 63.8148L66.3492 63.8148L66.3486 63.8148H66.3483C63.5895 63.7909 60.8354 63.7672 58.1195 63.6662C55.0349 63.582 51.9996 63.4304 49.0631 63.24C43.1902 62.871 37.7091 62.3183 33.0097 61.6865C28.3104 61.0547 24.3946 60.3521 21.654 59.7708C20.7324 59.5976 19.9378 59.4067 19.2929 59.2517C18.9842 59.1775 18.7098 59.1116 18.4722 59.0598L17.3463 58.7717ZM24.8699 80.0888C24.8699 80.0888 26.2001 79.7232 28.5302 79.2463C30.8603 78.7695 34.1886 78.1899 38.1811 77.6508C42.1736 77.1116 46.8337 76.6634 51.826 76.3551C54.323 76.1967 56.9018 76.0703 59.5215 75.9996C62.1411 75.9288 64.8016 75.8934 67.4673 75.8698C67.8492 75.873 68.2312 75.8758 68.613 75.8786L68.6163 75.8787L68.6196 75.8787L68.6229 75.8787C70.8991 75.8956 73.171 75.9124 75.413 75.9945C78.0327 76.0552 80.6132 76.1933 83.1085 76.345C88.1008 76.6499 92.7592 77.1116 96.7534 77.639C100.748 78.1663 104.078 78.7544 106.404 79.2413C108.731 79.7282 110.065 80.0837 110.065 80.0837C110.065 80.0837 108.734 80.451 106.404 80.9262C104.074 81.4013 100.746 82.0079 96.7534 82.5302C92.7609 83.0525 88.1008 83.5175 83.1085 83.8242C80.6132 83.9758 78.0327 84.1123 75.413 84.1746C73.2121 84.2538 70.9848 84.2713 68.7492 84.2888L68.7422 84.2889C68.3175 84.2922 67.8925 84.2955 67.4673 84.2993L66.5833 84.2917C64.2162 84.2717 61.8526 84.2518 59.5215 84.1679C56.9001 84.0735 54.323 83.9708 51.826 83.8124C46.8337 83.504 42.1752 83.0441 38.1811 82.5184C34.1869 81.9927 30.8569 81.4013 28.5302 80.9211C26.2036 80.4409 24.8699 80.0888 24.8699 80.0888ZM38.9322 98.7622C38.9322 98.7622 39.823 98.5432 41.3832 98.2568C42.9435 97.9703 45.1731 97.6098 47.8557 97.3132C54.3669 96.5714 60.9166 96.2102 67.4707 96.2315C74.0243 96.2031 80.5738 96.5621 87.084 97.3065C89.7599 97.603 91.9878 97.9804 93.5565 98.2551C95.1252 98.5297 96.0092 98.7605 96.0092 98.7605C96.0092 98.7605 95.1167 98.9813 93.5565 99.266C91.9963 99.5507 89.7684 99.9164 87.084 100.213C80.5737 100.957 74.0243 101.317 67.4707 101.29C60.9166 101.31 54.3669 100.949 47.8557 100.208C45.1816 99.9096 42.952 99.544 41.3832 99.2626C39.8145 98.9813 38.9322 98.7622 38.9322 98.7622ZM60.0766 114.789C58.9295 115.007 57.8052 115.329 56.7177 115.751C57.8046 116.177 58.929 116.503 60.0766 116.725C64.956 117.683 69.9783 117.683 74.8577 116.725C76.0053 116.506 77.1298 116.181 78.2166 115.756C77.1295 115.332 76.0051 115.008 74.8577 114.789C69.9783 113.831 64.956 113.831 60.0766 114.789Z" fill="#FF6D61"/>
</svg>
