<svg width="379" height="371" viewBox="0 0 379 371" fill="none" xmlns="http://www.w3.org/2000/svg">
<path d="M204.626 176.638C183.34 155.875 140.465 184.581 166.867 210.299C194.619 237.305 232.998 204.295 204.626 176.638Z" fill="white" stroke="white" stroke-width="0.73"/>
<path d="M88.9166 251.792C47.4553 231.602 17.7652 200.148 5.35858 157.845C-25.9201 249.267 105.898 329.695 182.228 298.321C211.95 286.121 260.068 240.259 211.061 226.693C176.637 260.275 134.016 273.778 88.9166 251.792Z" fill="white" stroke="white" stroke-width="0.73"/>
<path d="M249.614 289.378C234.555 312.174 218.447 332.269 192.268 346.042C166.088 359.814 135.08 351.443 108.201 364.532C169.154 379.369 240.162 366.121 278.526 312.618C302.847 278.719 305.42 245.677 301.052 207.948C297.536 186.143 286.818 170.729 268.899 161.706C262.323 158.528 226.008 159.815 230.345 164.057C252.855 207.948 283.371 239.99 249.63 289.33" fill="white"/>
<path d="M249.614 289.378C234.555 312.174 218.447 332.269 192.268 346.042C166.088 359.814 135.08 351.443 108.201 364.532C169.154 379.369 240.162 366.121 278.526 312.618C302.847 278.719 305.42 245.677 301.052 207.948C297.536 186.143 286.818 170.729 268.899 161.706C262.323 158.528 226.008 159.815 230.345 164.057C252.855 207.948 283.371 239.99 249.63 289.33" stroke="white" stroke-width="0.73"/>
<path d="M95.3496 101.483C99.6864 63.4373 121.386 32.0474 140.353 1.26123C56.0647 49.1244 17.5581 179.878 120.147 235.24C136.827 244.247 165.691 242.912 166.072 220.482C128.28 189.791 89.2019 155.351 95.3496 101.483Z" fill="white" stroke="white" stroke-width="0.73"/>
<path d="M262.466 95.2243C225.421 89.2036 172.331 113.032 178.908 157.861C222.593 147.218 273.49 128.25 315.65 154.811C349.741 176.288 348.422 231.062 378.16 245.549C378.16 171.745 343.879 100.895 262.45 95.2243" fill="white"/>
<path d="M262.466 95.2243C225.421 89.2036 172.331 113.032 178.908 157.861C222.593 147.218 273.49 128.25 315.65 154.811C349.741 176.288 348.422 231.062 378.16 245.549C378.16 171.745 343.879 100.895 262.45 95.2243" stroke="white" stroke-width="0.73"/>
<path d="M230.346 57.6391C281.291 45.2166 334.714 52.4286 378.177 82.6906C331.727 20.451 235.636 11.6345 178.765 47.3294C151.267 64.597 80.4814 176.622 146.772 176.622C161.561 126.154 172.761 74.446 230.346 57.6232" fill="white"/>
<path d="M230.346 57.6391C281.291 45.2166 334.714 52.4286 378.177 82.6906C331.727 20.451 235.636 11.6345 178.765 47.3294C151.267 64.597 80.4814 176.622 146.772 176.622C161.561 126.154 172.761 74.446 230.346 57.6232" stroke="white" stroke-width="0.73"/>
</svg>
